<?xml version="1.0" encoding="utf-8"?>
<svg version="1.1" xmlns="http://www.w3.org/2000/svg" x="0px" y="0px"
	 width="512px" height="512px" viewBox="0 0 512 512" xml:space="preserve">
<defs>
	<clipPath id="quiltClip">
		<path d="M423.063,239.844
			c-6.563-9.188-12.828-20.125-18.375-34.531
			c-12.219-31.875-30.078-54.375-54.906-68.094
			c-24.797-13.75-55.578-18.781-93.781-18.781
			s-68.969,5.031-93.781,18.781
			c-24.828,13.719-42.688,36.219-54.906,68.094
			c-5.563,14.375-11.813,25.375-18.375,34.594
			C83.939,245.907 82.845,247.001 80.689,249.251
			C71.876,258.548 63.408,268.892 57.392,282.939
			C51.361,297.002 47.892,314.423 47.908,337.783
			C47.892,361.752 54.002,383.408 65.455,402.002
			C82.643,429.908 111.408,450.658 148.127,464.393
			C203.206,484.995 308.794,484.995 363.873,464.393
			C400.592,450.658 429.357,429.908 446.545,402.002
			C457.998,383.408 464.108,361.752 464.092,337.783
			C464.108,314.423 460.639,297.002 454.608,282.939
			C448.592,268.892 440.124,258.548 431.311,249.251
			C430.233,248.126 429.155,247.001 428.061,245.907
			C426.061,242.907 423.061,239.907 423.063,239.844z"/>
	</clipPath>
</defs>

<!-- PURSE BODY -->
<path fill="#3D8B37" d="M423.063,239.844
	c-6.563-9.188-12.828-20.125-18.375-34.531
	c-12.219-31.875-30.078-54.375-54.906-68.094
	c-24.797-13.75-55.578-18.781-93.781-18.781
	s-68.969,5.031-93.781,18.781
	c-24.828,13.719-42.688,36.219-54.906,68.094
	c-5.563,14.375-11.813,25.375-18.375,34.594
	C83.939,245.907 82.845,247.001 80.689,249.251
	C71.876,258.548 63.408,268.892 57.392,282.939
	C51.361,297.002 47.892,314.423 47.908,337.783
	C47.892,361.752 54.002,383.408 65.455,402.002
	C82.643,429.908 111.408,450.658 148.127,464.393
	C203.206,484.995 308.794,484.995 363.873,464.393
	C400.592,450.658 429.357,429.908 446.545,402.002
	C457.998,383.408 464.108,361.752 464.092,337.783
	C464.108,314.423 460.639,297.002 454.608,282.939
	C448.592,268.892 440.124,258.548 431.311,249.251
	C430.233,248.126 429.155,247.001 428.061,245.907
	C426.061,242.907 423.061,239.907 423.063,239.844z"/>

<!-- QUILTED PATTERN -->
<g clip-path="url(#quiltClip)" opacity="0.25">
	<line x1="-60" y1="180" x2="210" y2="550" stroke="#1A5E1F" stroke-width="6"/>
	<line x1="0" y1="150" x2="270" y2="550" stroke="#1A5E1F" stroke-width="6"/>
	<line x1="60" y1="120" x2="330" y2="550" stroke="#1A5E1F" stroke-width="6"/>
	<line x1="120" y1="100" x2="390" y2="550" stroke="#1A5E1F" stroke-width="6"/>
	<line x1="180" y1="85" x2="450" y2="550" stroke="#1A5E1F" stroke-width="6"/>
	<line x1="240" y1="80" x2="510" y2="550" stroke="#1A5E1F" stroke-width="6"/>
	<line x1="300" y1="85" x2="570" y2="550" stroke="#1A5E1F" stroke-width="6"/>
	<line x1="360" y1="100" x2="630" y2="550" stroke="#1A5E1F" stroke-width="6"/>
	<line x1="420" y1="120" x2="690" y2="550" stroke="#1A5E1F" stroke-width="6"/>
	<line x1="480" y1="150" x2="750" y2="550" stroke="#1A5E1F" stroke-width="6"/>
	<line x1="540" y1="180" x2="810" y2="550" stroke="#1A5E1F" stroke-width="6"/>
	<line x1="572" y1="180" x2="302" y2="550" stroke="#1A5E1F" stroke-width="6"/>
	<line x1="512" y1="150" x2="242" y2="550" stroke="#1A5E1F" stroke-width="6"/>
	<line x1="452" y1="120" x2="182" y2="550" stroke="#1A5E1F" stroke-width="6"/>
	<line x1="392" y1="100" x2="122" y2="550" stroke="#1A5E1F" stroke-width="6"/>
	<line x1="332" y1="85" x2="62" y2="550" stroke="#1A5E1F" stroke-width="6"/>
	<line x1="272" y1="80" x2="2" y2="550" stroke="#1A5E1F" stroke-width="6"/>
	<line x1="212" y1="85" x2="-58" y2="550" stroke="#1A5E1F" stroke-width="6"/>
	<line x1="152" y1="100" x2="-118" y2="550" stroke="#1A5E1F" stroke-width="6"/>
	<line x1="92" y1="120" x2="-178" y2="550" stroke="#1A5E1F" stroke-width="6"/>
	<line x1="32" y1="150" x2="-238" y2="550" stroke="#1A5E1F" stroke-width="6"/>
	<line x1="-28" y1="180" x2="-298" y2="550" stroke="#1A5E1F" stroke-width="6"/>
</g>

<!-- CLASP FRAME -->
<path fill="#DBA63E" d="M423.063,239.844
	c-6.563-9.188-12.828-20.125-18.375-34.531
	c-12.219-31.875-30.078-54.375-54.906-68.094
	c-24.797-13.75-55.578-18.781-93.781-18.781
	s-68.969,5.031-93.781,18.781
	c-24.828,13.719-42.688,36.219-54.906,68.094
	c-5.563,14.375-11.813,25.375-18.375,34.594
	c-0.25-6.344-0.516-12.938-0.5-20.063
	c0-14.281,1.219-29.875,6.359-45.531
	c5.172-15.672,14.109-31.516,30.422-46.906
	c19.094-18,41.531-28.078,64.516-33.75
	c22.953-5.656,46.281-6.75,66.266-6.75
	c20,0,43.313,1.094,66.266,6.75
	c22.984,5.672,45.406,15.75,64.516,33.75
	c16.313,15.391,25.234,31.234,30.422,46.906
	c5.141,15.656,6.359,31.234,6.359,45.531
	C423.578,226.938,423.313,233.531,423.063,239.844z"/>

<!-- CROSSING ARMS -->
<path fill="#C4993A" d="M283,60 L297,60 L229,115 L215,115 Z"/>
<path fill="#C4993A" d="M215,60 L229,60 L297,115 L283,115 Z"/>
<circle fill="#DBA63E" cx="256" cy="87" r="7"/>
<circle fill="#FFFFFF" cx="254" cy="85" r="2.5" opacity="0.4"/>

<!-- Left hinge -->
<ellipse fill="#C4993A" cx="90" cy="237" rx="10" ry="14"/>
<ellipse fill="#DBA63E" cx="90" cy="235" rx="6" ry="10"/>

<!-- Right hinge -->
<ellipse fill="#C4993A" cx="422" cy="237" rx="10" ry="14"/>
<ellipse fill="#DBA63E" cx="422" cy="235" rx="6" ry="10"/>

<!-- Left knob -->
<circle fill="#9B7B2F" cx="221.953" cy="43.438" r="17.375"/>
<circle fill="#C4993A" cx="221.953" cy="43.438" r="14.5"/>
<circle fill="#DEBB55" cx="219" cy="40" r="8" opacity="0.4"/>
<circle fill="#FFFFFF" cx="215.5" cy="36.5" r="3.5" opacity="0.7"/>

<!-- Right knob -->
<circle fill="#9B7B2F" cx="290.031" cy="43.438" r="17.375"/>
<circle fill="#C4993A" cx="290.031" cy="43.438" r="14.5"/>
<circle fill="#DEBB55" cx="293" cy="40" r="8" opacity="0.4"/>
<circle fill="#FFFFFF" cx="296.5" cy="36.5" r="3.5" opacity="0.7"/>

</svg>
